# xmcd
#
# Track frame offsets:
#	150
#	11935
#	24331
#	36719
#	49603
#	68651
#	83132
#	100123
#	111549
#	119608
#	132578
#	144839
#	163432
#	181565
#	194065
#	211026
#	219345
#	231843
#	243638
#	257435
#	277693
#	291457
#	307627
#	320027
#	331103
#	340468
# Disc length: 4700 seconds
# Revision: 1
# Processed by: cddbd v1.5.2PL0 Copyright (c) Steve Scherf et al.
#
# Submitted via: libkcddb 0.31
#
DISCID=85125a1a
DTITLE=Johnny Cash - Country Classics
DYEAR=1900
DGENRE=Country
TTITLE0=Ring Of Fire
TTITLE1=I Walk The Line
TTITLE2=Folsom Prision Blues
TTITLE3=Cocaine Blues
TTITLE4=Doin' My Time
TTITLE5=25 Minutes to Go
TTITLE6=A Boy Named Sue
TTITLE7=Big River
TTITLE8=Five Feet High And Rising
TTITLE9=Man In Black
TTITLE10=Understand Your Man
TTITLE11=Sunday Mornin' Comin' Down
TTITLE12=One Piece At A Time
TTITLE13=Jackson (with June Carter)
TTITLE14=(Ghost) Riders in the Sky
TTITLE15=Guess Things Happen That Way
TTITLE16=Any Old Wind That Blows
TTITLE17=Flesh and Blood
TTITLE18=Don't Take Your Guns to Town
TTITLE19=If You Could Read My Mind
TTITLE20=My Dixie Darling
TTITLE21=Shakin' The Blues
TTITLE22=Would Jesus Wear A Rolex? (Feat. Joe Diffie)
TTITLE23=Michael Row The Boat
TTITLE24=Walk, Don`t Run
TTITLE25=Wipe Out
EXTD=
EXTT0=
EXTT1=
EXTT2=
EXTT3=
EXTT4=
EXTT5=
EXTT6=
EXTT7=
EXTT8=
EXTT9=
EXTT10=
EXTT11=
EXTT12=
EXTT13=
EXTT14=
EXTT15=
EXTT16=
EXTT17=
EXTT18=
EXTT19=
EXTT20=
EXTT21=
EXTT22=
EXTT23=
EXTT24=
EXTT25=
PLAYORDER=
